<?xml version="1.0" encoding="UTF-8"?>
<!DOCTYPE svg PUBLIC "-//W3C//DTD SVG 1.1//EN" "http://www.w3.org/Graphics/SVG/1.1/DTD/svg11.dtd">
<!-- Creator: CorelDRAW 2020 (64 Bit) -->
<svg xmlns="http://www.w3.org/2000/svg" xml:space="preserve" width="297mm" height="210mm" version="1.1" style="shape-rendering:geometricPrecision; text-rendering:geometricPrecision; image-rendering:optimizeQuality; fill-rule:evenodd; clip-rule:evenodd"
viewBox="0 0 29700 21000"
 xmlns:xlink="http://www.w3.org/1999/xlink"
 xmlns:xodm="http://www.corel.com/coreldraw/odm/2003">
 <defs>
  <style type="text/css">
   <![CDATA[
    .fil10 {fill:none}
    .fil0 {fill:#666666}
    .fil9 {fill:#2F2D30;fill-rule:nonzero}
    .fil3 {fill:#333333;fill-rule:nonzero}
    .fil6 {fill:#545454;fill-rule:nonzero}
    .fil8 {fill:gray;fill-rule:nonzero}
    .fil4 {fill:#B3B3B3;fill-rule:nonzero}
    .fil1 {fill:#CCCCCC;fill-rule:nonzero}
    .fil5 {fill:#D3616A;fill-rule:nonzero}
    .fil7 {fill:#F0F1F1;fill-rule:nonzero}
    .fil2 {fill:white;fill-rule:nonzero}
   ]]>
  </style>
   <clipPath id="id0">
    <path d="M14872.51 5484.19c2331.2,0 4221,1889.8 4221,4221 0,2331.2 -1889.8,4221 -4221,4221 -808.82,0 -1564.46,-227.61 -2206.46,-622.15l-0.07 0.2 -1423.56 442.69c-352.02,116.56 -441.71,-53.06 -328.08,-444.5l371.14 -1371.84c-401.72,-646.14 -633.97,-1408.58 -633.97,-2225.4 0,-2331.2 1889.8,-4221 4221,-4221z"/>
   </clipPath>
 </defs>
 <g id="Camada_x0020_1">
  <metadata id="CorelCorpID_0Corel-Layer"/>
  <path class="fil0" d="M14872.51 5484.19c2331.2,0 4221,1889.8 4221,4221 0,2331.2 -1889.8,4221 -4221,4221 -808.82,0 -1564.46,-227.61 -2206.46,-622.15l-0.07 0.2 -1423.56 442.69c-352.02,116.56 -441.71,-53.06 -328.08,-444.5l371.14 -1371.84c-401.72,-646.14 -633.97,-1408.58 -633.97,-2225.4 0,-2331.2 1889.8,-4221 4221,-4221z"/>
  <g style="clip-path:url(#id0)">
   <g id="_1865138342896">
    <path id="1" class="fil1" d="M22387.11 9746.83c0,4093.05 -3317.39,7411.12 -7409.31,7411.12 -4092.21,0 -7409.3,-3318.07 -7409.3,-7411.12 0,-4093.06 3317.09,-7411.14 7409.3,-7411.14 4091.92,0 7409.31,3318.08 7409.31,7411.14z"/>
    <path class="fil2" d="M21189.64 2825.49c-18.35,-10 -36.53,-19.86 -54.89,-29.63l9.8 -18.42c18.36,9.76 36.72,19.69 55.07,29.74l-9.98 18.31z"/>
    <polygon class="fil3" points="14196.8,12973.48 13913.18,12943.72 14417.59,8060.76 17487.59,11885.25 17265.99,12065.99 14629.78,8781.97 "/>
    <polygon class="fil4" points="14525.07,7830.07 14231.87,7916.81 13995.65,7105.29 14288.69,7018.56 "/>
    <path class="fil4" d="M13604.56 7083.49l0 0c-31.66,-109.06 30.19,-223.44 138.48,-255.46l609.45 -180.4c108.29,-32.01 221.61,30.45 253.59,139.52l0 0c31.66,109.08 -30.2,223.44 -138.48,255.48l-609.62 180.39c-108.29,32.02 -221.77,-30.46 -253.42,-139.53z"/>
    <path class="fil5" d="M17369.4 9285.28c385.09,1322.54 -366.25,2709.37 -1678.02,3097.58 -1311.94,388.18 -2687.51,-369.25 -3072.57,-1691.8 -385.01,-1322.53 366.22,-2709.37 1678.16,-3097.57 1311.77,-388.21 2687.34,369.23 3072.43,1691.79z"/>
    <path class="fil3" d="M17369.4 9285.28c385.09,1322.54 -366.25,2709.37 -1678.02,3097.58 -1311.94,388.18 -2687.51,-369.25 -3072.57,-1691.8 -385.01,-1322.53 366.22,-2709.37 1678.16,-3097.57 1311.77,-388.21 2687.34,369.23 3072.43,1691.79z"/>
    <path class="fil6" d="M17262.74 9316.86c367.72,1263.13 -349.86,2587.64 -1602.7,2958.42 -1253,370.75 -2566.88,-352.68 -2934.5,-1615.8 -367.82,-1263.13 349.76,-2587.66 1602.76,-2958.42 1252.84,-370.75 2566.72,352.66 2934.44,1615.8z"/>
    <path class="fil2" d="M16111.69 8348.25c-472.27,-326.72 -1080.91,-444.58 -1673.48,-269.25 -1045.85,309.49 -1644.79,1415.14 -1337.91,2469.57 95.46,327.39 266.9,611.3 489.32,837.98 494.02,503.32 1239.2,724.19 1960.35,510.79 1046.01,-309.49 1644.91,-1415.14 1337.91,-2469.56 -133.13,-457.11 -414.8,-829.47 -776.19,-1079.53z"/>
    <path class="fil7" d="M16111.69 8348.25c222.42,226.69 394.02,510.61 489.32,838 307,1054.42 -292.06,2160.08 -1337.75,2469.57 -592.57,175.33 -1201.37,57.47 -1673.64,-269.27 494.02,503.32 1239.2,724.19 1960.35,510.79 1046.01,-309.49 1644.91,-1415.14 1337.91,-2469.56 -133.13,-457.11 -414.8,-829.47 -776.19,-1079.53z"/>
    <path class="fil3" d="M17306.9 8162.69c304.24,-545.57 108.61,-1238.3 -436.88,-1547.23 -545.33,-308.97 -1234.01,-117.16 -1538.08,428.41l1974.96 1118.82z"/>
    <path class="fil6" d="M17028.8 7990.79c262.03,-470.08 93.35,-1066.97 -376.65,-1333.18 -470,-266.19 -1063.22,-100.93 -1325.25,369.15l1701.9 964.03z"/>
    <path class="fil3" d="M12042.51 9733.92c-548.3,-293.34 -755,-982.78 -461.82,-1539.91 293.31,-557.12 975.45,-770.97 1523.67,-477.61l-1061.85 2017.52z"/>
    <path class="fil6" d="M12188.83 9455.98c-472.75,-252.92 -651.06,-847.38 -398.25,-1327.76 252.94,-480.37 841.09,-664.75 1313.78,-411.82l-915.53 1739.58z"/>
    <path class="fil8" d="M17401.39 8530.37c39.12,41.66 74.68,86.59 108.12,132.84 33.93,46.12 65.1,94.05 95.13,142.86 59.59,97.85 112.03,200.22 157.97,305.84 45.94,105.61 84.42,214.74 116.08,326.18 7.79,27.92 15.42,55.85 22.08,84.06l19.48 84.89c10.88,57.06 21.59,114.23 29.06,172.01l5.52 43.31c1.79,14.45 2.76,29.03 4.22,43.53 2.27,29.06 5.52,58.02 7.14,87.16l2.93 87.48c0.97,29.16 0.16,58.41 -0.33,87.58 -3.25,116.66 -14.12,233.43 -38.31,347.58l-8.44 42.8c-2.76,14.27 -7.15,28.26 -10.55,42.4 -7.47,28.14 -14.78,56.27 -22.57,84.16 -9.09,27.65 -18.35,55.17 -27.77,82.53l-14.44 40.86 -16.73 40.09c-11.52,26.54 -22.4,53.18 -34.41,79.26 -13.48,25.67 -26.3,51.33 -39.94,76.59 -6.82,12.59 -13.15,25.4 -20.46,37.72l-22.89 36.47c-15.91,23.98 -30.84,48.15 -47.24,71.5 6.5,-28.17 14.12,-55.49 20.78,-82.98l11.04 -40.76 9.42 -41.22c6,-27.51 12.5,-54.59 18.83,-81.65l15.42 -81.97 7.96 -40.61 6 -41.05 12.18 -81.51c5.19,-54.84 13.31,-108.73 15.75,-163.4 4.87,-54.29 5.68,-108.83 7.79,-163.07 0.98,-27.13 -0.49,-54.43 0,-81.51l0 -40.67 -1.79 -40.71c-1.62,-27.12 -1.29,-54.22 -3.4,-81.31l-6.17 -81.18c-1.95,-27.05 -5.36,-54.06 -7.96,-81.06 -1.3,-13.52 -2.43,-27.05 -4.22,-40.52l-5.84 -40.36c-6.01,-54.05 -15.75,-107.65 -24.52,-161.41l-15.1 -80.44 -16.88 -80.18c-23.38,-106.86 -50.98,-213.18 -81.66,-319.14 -61.69,-212.06 -135.89,-421.66 -221.28,-632.99z"/>
    <path class="fil8" d="M18078.05 8724.88c30.36,27.47 57.31,58.12 82.96,89.6 25.82,31.47 49.52,64.46 72.41,98.2 45.13,67.66 84.58,139.2 119.49,213.3 34.25,74.23 63.15,151.3 86.69,230.36 23.54,79.01 40.75,160.21 51.63,242.52 10.88,82.26 15.91,165.67 12.34,249.04 -2.93,83.24 -12.34,166.47 -31.5,247.54 -4.38,20.33 -9.09,40.52 -15.26,60.4 -5.85,19.96 -11.69,39.84 -18.02,59.54 -7.14,19.51 -14.28,38.93 -21.75,58.16l-11.53 28.7 -12.99 28.1c-8.93,18.53 -17.53,37.17 -26.95,55.3 -10.39,17.85 -20.45,35.67 -31.17,53.1 -5.36,8.69 -10.39,17.54 -16.07,26l-17.86 25.02c-12.01,16.46 -24.19,32.81 -37.02,48.51 13.48,-81.12 30.85,-157.39 39.78,-234.98l4.22 -28.62 2.92 -28.88 6.5 -57.14c1.78,-38.41 6.49,-75.93 6.98,-114 3.89,-75.58 2.92,-150.92 -0.49,-225.93 -3.08,-74.99 -10.71,-149.78 -20.62,-224.38 -18.99,-149.4 -51.46,-297.78 -89.94,-446.83 -38.8,-149.39 -84.91,-297.89 -134.75,-452.63z"/>
    <path class="fil8" d="M12101.34 10098.8c41.64,224.22 91.57,440.98 153.21,653.03 31.09,105.87 64.83,210.31 102.52,312.96l28.67 76.71 30.56 75.84c21.39,50.02 41.77,100.49 65.72,149.25l16.94 37.06c5.61,12.37 11.97,24.3 17.96,36.47 12.36,24.12 23.95,48.66 36.8,72.51l38.47 71.62c12.61,23.97 27.51,46.57 40.63,70.31l20.25 35.23 21.91 34.21c14.89,22.55 28.4,46.23 43.67,68.6 30.83,44.51 60.76,89.95 94,132.95 31.34,44.67 67.12,85.53 100.79,128.95l53.9 61.87 27.11 31.31 28.41 29.79 56.99 60.58c19.8,19.34 39.94,38.53 59.74,58.41l29.87 29.62 31.17 28.28c20.46,19.43 41.4,38.29 61.86,58.51 -26.3,-10.75 -51.63,-22.89 -77.93,-34.46l-38.8 -18.21c-12.83,-6.38 -24.84,-13.75 -37.5,-20.59 -25,-13.84 -49.68,-28.37 -74.52,-42.75 -24.19,-15.35 -47.57,-31.89 -71.6,-47.9l-35.55 -24.62 -34.09 -26.51c-22.54,-17.85 -45.09,-36.02 -67.49,-54.34 -21.66,-19.16 -42.8,-38.9 -64.06,-58.55 -10.57,-9.98 -21.79,-19.39 -31.73,-29.9l-30.05 -31.38c-81.51,-82.89 -153.33,-175.22 -218.55,-271.64 -16.04,-24.24 -32.47,-48.42 -47.24,-73.42l-44.46 -75.27c-14.39,-25.32 -26.99,-51.5 -40.63,-77.24 -6.62,-12.96 -13.62,-25.72 -19.87,-38.87l-18.46 -39.49c-24.84,-52.67 -46.48,-106.59 -67.88,-160.55l-29.17 -81.98c-9.42,-27.41 -17.96,-55.09 -26.37,-82.8 -33.23,-110.97 -59.22,-223.83 -77.31,-337.66 -17.95,-113.86 -28.65,-228.6 -30.94,-343.35 -1.02,-57.38 -0.38,-114.72 3.31,-171.94 3.44,-57.17 9.17,-114.33 19.74,-170.65z"/>
    <path class="fil8" d="M11636.34 10631.12c41.15,157.31 81.89,307.41 129.4,454.15 47.63,146.35 99.86,288.88 163.79,424.98 31.72,68.11 65.48,135.21 103.04,199.98 37.31,65.01 76.79,128.92 120.61,190.38 20.75,31.79 44.82,60.85 67.11,92.07l36.04 44.61 17.83 22.71 19.11 21.72c49.05,60.46 104.57,115.16 159.33,176.11 -19.22,-6.22 -38.2,-13.42 -57.18,-20.67l-28.41 -11.32c-9.42,-3.97 -18.2,-8.75 -27.5,-13.12 -18.35,-8.82 -36.3,-18.34 -54.63,-27.72 -17.71,-10.08 -34.78,-21.14 -52.49,-31.79l-25.98 -16.56 -24.97 -17.91c-16.67,-12.09 -33.1,-24.54 -49.53,-37.06 -15.92,-13.1 -31.33,-26.78 -47,-40.36 -15.92,-13.36 -30.7,-27.77 -45.21,-42.48 -59.6,-57.76 -112.2,-122.68 -159.33,-191.04 -47.63,-68.25 -88.14,-141.2 -123.03,-216.37 -70.18,-150.36 -115.13,-310.96 -137.04,-473.22 -10.56,-81.25 -15.66,-162.97 -13.89,-244.52 1.15,-40.8 3.33,-81.49 8.29,-122.03 4.71,-40.49 10.82,-80.92 21.64,-120.54z"/>
    <g>
     <path class="fil6" d="M14983.39 10198.27l-413.5 449.58c-31.74,34.51 -48.55,53.37 -53.72,71.12 -6.23,21.32 -1.12,59.82 15.52,117.73l103.57 360.24 1358.34 -390.5 -101.39 -352.79c-32.03,-111.37 -98.65,-134.14 -147.27,-150.78 -38.03,-12.98 -365.4,-101.37 -576.15,-157.6 -29.62,-7.91 -52.93,-30.8 -61.42,-60.27l-61.66 -214.46c-8.4,-29.29 -0.95,-60.84 19.66,-83.27l412.26 -448.23 1.25 -1.37c31.73,-34.51 48.55,-53.37 53.71,-71.11 6.2,-21.32 1.13,-59.83 -15.52,-117.73l-119.93 -417.19 -1358.37 390.53 117.81 409.73c32,111.36 98.6,134.13 147.25,150.77 37.99,13 365.36,101.36 576.11,157.6 29.63,7.92 52.96,30.77 61.43,60.27l61.66 214.46c8.42,29.29 0.96,60.82 -19.64,83.27zm-736.09 -350.31c-60.28,-20.6 -201.46,-68.89 -258.63,-267.79l-117.81 -409.74 -56.03 16.11c-25.65,7.37 -52.69,-7.58 -60.06,-33.23l-63.21 -219.83c-7.37,-25.66 7.58,-52.67 33.26,-60.04l1806.23 -519.3c25.66,-7.36 52.69,7.58 60.06,33.25l63.21 219.81c7.37,25.64 -7.59,52.68 -33.23,60.05l-56.06 16.12 119.94 417.19c56.62,196.96 9.89,260.31 -77.53,355.38l-380.28 413.5 34.45 119.8c136.18,36.45 492.06,132.01 539.82,148.34 60.28,20.59 201.48,68.86 258.67,267.79l101.43 352.78 56.02 -16.1c25.66,-7.39 52.7,7.58 60.1,33.22l63.17 219.83c7.37,25.65 -7.59,52.66 -33.23,60.05l-1806.27 519.29c-25.64,7.37 -52.67,-7.58 -60.05,-33.25l-63.18 -219.8c-7.4,-25.66 7.57,-52.68 33.23,-60.05l56.03 -16.12 -103.54 -360.25c-56.66,-196.93 -9.94,-260.32 77.51,-355.38l380.23 -413.47 -34.43 -119.83c-136.17,-36.43 -492.04,-132 -539.82,-148.33z"/>
     <path class="fil3" d="M14899.72 9785.75c-79.2,-13.71 -558.36,-136.16 -558.36,-136.16 0,0 -37.8,-17.67 10.57,-23.44 114.62,-13.71 324.22,42.33 559.2,-6.35 234.97,-48.66 292.42,-251.55 443.91,-258.33 33.02,-1.48 37.11,11.75 6.78,43.69 -30.3,31.95 -305.56,308.45 -343.45,346.47 -37.85,38.05 -64.23,43.52 -118.65,34.12z"/>
     <path class="fil3" d="M15749.96 10748.74c48.71,24.38 74.6,44.77 -14.03,70.26 -72.24,20.77 -795.54,228.7 -887.48,255.14 -91.93,26.43 -65.22,-14.95 -33.95,-68.39 60.43,-103.21 185.01,-264.86 396.29,-325.61 221.26,-63.59 430.66,14.24 539.17,68.6z"/>
     <path class="fil9" d="M14987.67 9865.16c12.42,-3.57 26.15,6.39 30.72,22.21 4.55,15.84 -1.79,31.58 -14.21,35.15 -12.4,3.57 -26.14,-6.4 -30.71,-22.23 -4.53,-15.84 1.82,-31.57 14.2,-35.13z"/>
     <path class="fil9" d="M15021.01 9981.06c12.41,-3.57 26.14,6.41 30.7,22.24 4.56,15.85 -1.8,31.55 -14.2,35.12 -12.39,3.58 -26.16,-6.38 -30.68,-22.22 -4.57,-15.85 1.79,-31.57 14.18,-35.14z"/>
     <path class="fil9" d="M15070.85 10154.35c-12.4,3.57 -26.15,-6.4 -30.72,-22.22 -4.54,-15.86 1.8,-31.6 14.22,-35.15 12.4,-3.58 26.1,6.39 30.66,22.23 4.58,15.83 -1.77,31.57 -14.16,35.14z"/>
     <path class="fil9" d="M15104.13 10270.25c-12.36,3.57 -26.11,-6.37 -30.66,-22.22 -4.57,-15.84 1.79,-31.58 14.17,-35.15 12.44,-3.57 26.15,6.4 30.73,22.24 4.53,15.85 -1.8,31.58 -14.24,35.13z"/>
     <path class="fil9" d="M15137.48 10386.17c-12.4,3.55 -26.14,-6.39 -30.68,-22.22 -4.56,-15.85 1.8,-31.58 14.17,-35.14 12.41,-3.57 26.15,6.39 30.7,22.23 4.59,15.84 -1.77,31.56 -14.19,35.13z"/>
     <path class="fil9" d="M15170.82 10502.09c-12.4,3.56 -26.16,-6.4 -30.7,-22.24 -4.55,-15.85 1.78,-31.57 14.19,-35.14 12.41,-3.56 26.13,6.39 30.69,22.23 4.53,15.85 -1.8,31.58 -14.18,35.15z"/>
     <path class="fil9" d="M15204.12 10618c-12.38,3.57 -26.14,-6.39 -30.69,-22.23 -4.55,-15.85 1.81,-31.57 14.21,-35.14 12.4,-3.57 26.12,6.39 30.7,22.22 4.54,15.85 -1.8,31.58 -14.22,35.15z"/>
    </g>
   </g>
  </g>
  <path class="fil10" d="M14872.51 5484.19c2331.2,0 4221,1889.8 4221,4221 0,2331.2 -1889.8,4221 -4221,4221 -808.82,0 -1564.46,-227.61 -2206.46,-622.15l-0.07 0.2 -1423.56 442.69c-352.02,116.56 -441.71,-53.06 -328.08,-444.5l371.14 -1371.84c-401.72,-646.14 -633.97,-1408.58 -633.97,-2225.4 0,-2331.2 1889.8,-4221 4221,-4221z"/>
 </g>
</svg>
