<?xml version="1.0" encoding="UTF-8"?>
<!DOCTYPE svg PUBLIC "-//W3C//DTD SVG 1.1//EN" "http://www.w3.org/Graphics/SVG/1.1/DTD/svg11.dtd">
<!-- Creator: CorelDRAW 2020 (64 Bit) -->
<svg xmlns="http://www.w3.org/2000/svg" xml:space="preserve" width="86mm" height="86mm" version="1.1" style="shape-rendering:geometricPrecision; text-rendering:geometricPrecision; image-rendering:optimizeQuality; fill-rule:evenodd; clip-rule:evenodd"
viewBox="0 0 8600 8600"
 xmlns:xlink="http://www.w3.org/1999/xlink"
 xmlns:xodm="http://www.corel.com/coreldraw/odm/2003">
 <defs>
  <style type="text/css">
   <![CDATA[
    .fil10 {fill:none}
    .fil0 {fill:#666666}
    .fil9 {fill:#2F2D30;fill-rule:nonzero}
    .fil3 {fill:#333333;fill-rule:nonzero}
    .fil6 {fill:#545454;fill-rule:nonzero}
    .fil8 {fill:gray;fill-rule:nonzero}
    .fil1 {fill:#999999;fill-rule:nonzero}
    .fil4 {fill:#B3B3B3;fill-rule:nonzero}
    .fil5 {fill:#D3616A;fill-rule:nonzero}
    .fil7 {fill:#F0F1F1;fill-rule:nonzero}
    .fil2 {fill:white;fill-rule:nonzero}
   ]]>
  </style>
   <clipPath id="id0">
    <path d="M4299.47 107.05c2319.64,0 4200.08,1880.44 4200.08,4200.08 0,2319.64 -1880.44,4200.08 -4200.08,4200.08 -804.81,0 -1556.71,-226.48 -2195.52,-619.07l-0.07 0.2 -1416.51 440.5c-350.27,115.98 -439.52,-52.8 -326.45,-442.3l369.3 -1365.04c-399.73,-642.94 -630.83,-1401.6 -630.83,-2214.37 0,-2319.64 1880.44,-4200.08 4200.08,-4200.08z"/>
   </clipPath>
 </defs>
 <g id="Camada_x0020_1">
  <metadata id="CorelCorpID_0Corel-Layer"/>
  <path class="fil0" d="M4299.47 107.05c2319.64,0 4200.08,1880.44 4200.08,4200.08 0,2319.64 -1880.44,4200.08 -4200.08,4200.08 -804.81,0 -1556.71,-226.48 -2195.52,-619.07l-0.07 0.2 -1416.51 440.5c-350.27,115.98 -439.52,-52.8 -326.45,-442.3l369.3 -1365.04c-399.73,-642.94 -630.83,-1401.6 -630.83,-2214.37 0,-2319.64 1880.44,-4200.08 4200.08,-4200.08z"/>
  <g style="clip-path:url(#id0)">
   <g id="_1865006137584">
    <path id="1" class="fil1" d="M11776.82 4348.57c0,4072.75 -3300.94,7374.38 -7372.58,7374.38 -4071.93,0 -7372.58,-3301.63 -7372.58,-7374.38 0,-4072.78 3300.65,-7374.41 7372.58,-7374.41 4071.64,0 7372.58,3301.63 7372.58,7374.41z"/>
    <path class="fil2" d="M10585.29 -2538.47c-18.26,-9.95 -36.35,-19.76 -54.62,-29.48l9.75 -18.34c18.27,9.73 36.54,19.6 54.8,29.61l-9.93 18.21z"/>
    <polygon class="fil3" points="3627.11,7559.22 3344.89,7529.6 3846.81,2670.85 6901.59,6476.38 6681.08,6656.23 4057.95,3388.49 "/>
    <polygon class="fil4" points="3953.75,2441.3 3662,2527.61 3426.96,1720.11 3718.54,1633.82 "/>
    <path class="fil4" d="M3037.8 1698.42l0 0c-31.5,-108.51 30.05,-222.32 137.79,-254.19l606.44 -179.51c107.75,-31.84 220.5,30.3 252.33,138.84l0 0c31.5,108.54 -30.05,222.33 -137.8,254.21l-606.59 179.49c-107.75,31.87 -220.67,-30.3 -252.17,-138.84z"/>
    <path class="fil5" d="M6783.99 3889.3c383.18,1315.98 -364.44,2695.94 -1669.71,3082.23 -1305.43,386.25 -2674.19,-367.42 -3057.34,-1683.42 -383.1,-1315.97 364.41,-2695.94 1669.84,-3082.21 1305.27,-386.29 2674.03,367.4 3057.21,1683.4z"/>
    <path class="fil3" d="M6783.99 3889.3c383.18,1315.98 -364.44,2695.94 -1669.71,3082.23 -1305.43,386.25 -2674.19,-367.42 -3057.34,-1683.42 -383.1,-1315.97 364.41,-2695.94 1669.84,-3082.21 1305.27,-386.29 2674.03,367.4 3057.21,1683.4z"/>
    <path class="fil6" d="M6677.85 3920.73c365.9,1256.86 -348.12,2574.81 -1594.75,2943.75 -1246.79,368.91 -2554.16,-350.93 -2919.96,-1607.79 -365.99,-1256.87 348.03,-2574.84 1594.82,-2943.75 1246.63,-368.92 2554,350.9 2919.89,1607.79z"/>
    <path class="fil2" d="M5532.51 2956.92c-469.93,-325.1 -1075.55,-442.38 -1665.19,-267.92 -1040.66,307.96 -1636.64,1408.12 -1331.27,2457.33 94.98,325.77 265.57,608.27 486.89,833.83 491.57,500.83 1233.06,720.6 1950.63,508.25 1040.82,-307.95 1636.76,-1408.12 1331.28,-2457.31 -132.47,-454.85 -412.74,-825.36 -772.34,-1074.18z"/>
    <path class="fil7" d="M5532.51 2956.92c221.32,225.57 392.07,508.08 486.89,833.84 305.48,1049.19 -290.61,2149.37 -1331.11,2457.33 -589.64,174.46 -1195.42,57.18 -1665.35,-267.93 491.57,500.83 1233.06,720.6 1950.63,508.25 1040.82,-307.95 1636.76,-1408.12 1331.28,-2457.31 -132.47,-454.85 -412.74,-825.36 -772.34,-1074.18z"/>
    <path class="fil3" d="M6721.79 2772.28c302.73,-542.87 108.08,-1232.16 -434.71,-1539.56 -542.62,-307.44 -1227.89,-116.58 -1530.46,426.29l1965.17 1113.27z"/>
    <path class="fil6" d="M6445.07 2601.22c260.73,-467.74 92.89,-1061.67 -374.78,-1326.56 -467.67,-264.88 -1057.95,-100.43 -1318.68,367.31l1693.46 959.25z"/>
    <path class="fil3" d="M1483.5 4335.72c-545.59,-291.89 -751.26,-977.91 -459.53,-1532.28 291.86,-554.36 970.61,-767.15 1516.12,-475.25l-1056.59 2007.53z"/>
    <path class="fil6" d="M1629.09 4059.15c-470.41,-251.67 -647.83,-843.17 -396.28,-1321.18 251.69,-477.98 836.93,-661.45 1307.28,-409.78l-911 1730.96z"/>
    <path class="fil8" d="M6815.81 3138.13c38.93,41.46 74.31,86.17 107.59,132.18 33.76,45.9 64.78,93.59 94.66,142.16 59.29,97.36 111.47,199.23 157.18,304.32 45.72,105.09 84.01,213.67 115.51,324.57 7.75,27.77 15.35,55.57 21.97,83.64l19.38 84.47c10.83,56.77 21.49,113.66 28.92,171.15l5.49 43.1c1.78,14.38 2.75,28.89 4.2,43.31 2.26,28.92 5.5,57.74 7.11,86.73l2.91 87.05c0.97,29.01 0.16,58.12 -0.32,87.14 -3.24,116.09 -14.06,232.27 -38.13,345.86l-8.4 42.59c-2.75,14.2 -7.11,28.12 -10.5,42.19 -7.43,28 -14.7,55.99 -22.45,83.74 -9.05,27.51 -18.26,54.9 -27.63,82.12l-14.38 40.66 -16.64 39.89c-11.46,26.41 -22.29,52.91 -34.24,78.87 -13.41,25.55 -26.17,51.07 -39.74,76.21 -6.79,12.52 -13.09,25.27 -20.36,37.53l-22.77 36.3c-15.83,23.85 -30.7,47.9 -47.01,71.13 6.46,-28.02 14.05,-55.21 20.68,-82.56l10.98 -40.56 9.37 -41.02c5.98,-27.37 12.44,-54.31 18.74,-81.24l15.34 -81.56 7.92 -40.41 5.98 -40.85 12.11 -81.1c5.17,-54.58 13.25,-108.2 15.67,-162.59 4.85,-54.03 5.66,-108.3 7.76,-162.27 0.97,-27 -0.49,-54.15 0,-81.1l0 -40.48 -1.78 -40.5c-1.61,-26.98 -1.29,-53.95 -3.39,-80.91l-6.14 -80.78c-1.94,-26.91 -5.33,-53.79 -7.91,-80.65 -1.3,-13.45 -2.43,-26.92 -4.21,-40.32l-5.81 -40.16c-5.98,-53.79 -15.67,-107.12 -24.4,-160.61l-15.02 -80.04 -16.8 -79.78c-23.26,-106.34 -50.72,-212.13 -81.25,-317.57 -61.39,-211.01 -135.22,-419.56 -220.19,-629.85z"/>
    <path class="fil8" d="M7489.12 3331.68c30.21,27.33 57.03,57.83 82.55,89.16 25.69,31.31 49.27,64.13 72.05,97.71 44.91,67.32 84.16,138.51 118.9,212.24 34.08,73.86 62.84,150.55 86.26,229.22 23.42,78.61 40.55,159.42 51.37,241.32 10.83,81.85 15.83,164.85 12.28,247.81 -2.91,82.82 -12.28,165.63 -31.34,246.31 -4.36,20.22 -9.05,40.31 -15.19,60.1 -5.81,19.86 -11.63,39.64 -17.93,59.25 -7.11,19.4 -14.21,38.73 -21.64,57.86l-11.47 28.56 -12.93 27.96c-8.88,18.44 -17.44,36.99 -26.81,55.03 -10.34,17.76 -20.36,35.49 -31.02,52.83 -5.33,8.65 -10.34,17.46 -15.99,25.87l-17.77 24.9c-11.95,16.38 -24.07,32.64 -36.84,48.28 13.42,-80.73 30.7,-156.62 39.59,-233.83l4.19 -28.48 2.91 -28.73 6.46 -56.86c1.78,-38.21 6.47,-75.55 6.95,-113.44 3.88,-75.2 2.91,-150.16 -0.48,-224.8 -3.07,-74.62 -10.67,-149.04 -20.52,-223.27 -18.9,-148.66 -51.21,-296.3 -89.5,-444.61 -38.61,-148.66 -84.48,-296.41 -134.08,-450.39z"/>
    <path class="fil8" d="M1542.04 4698.79c41.43,223.11 91.11,438.79 152.45,649.79 30.93,105.34 64.5,209.27 102.01,311.41l28.53 76.33 30.4 75.46c21.29,49.78 41.57,99.99 65.4,148.51l16.86 36.88c5.57,12.31 11.91,24.18 17.87,36.29 12.29,24 23.82,48.42 36.62,72.15l38.27 71.26c12.55,23.86 27.38,46.34 40.43,69.97l20.15 35.05 21.81 34.05c14.81,22.43 28.25,45.99 43.45,68.25 30.68,44.29 60.45,89.5 93.53,132.29 31.18,44.45 66.78,85.11 100.29,128.32l53.63 61.56 26.98 31.15 28.27 29.65 56.7 60.27c19.71,19.25 39.74,38.35 59.45,58.13l29.72 29.47 31.02 28.13c20.35,19.35 41.19,38.1 61.55,58.23 -26.17,-10.7 -51.37,-22.78 -77.54,-34.29l-38.61 -18.12c-12.76,-6.35 -24.72,-13.68 -37.32,-20.49 -24.87,-13.77 -49.43,-28.23 -74.15,-42.54 -24.07,-15.27 -47.33,-31.73 -71.24,-47.66l-35.37 -24.5 -33.93 -26.38c-22.42,-17.76 -44.86,-35.83 -67.15,-54.07 -21.55,-19.07 -42.58,-38.7 -63.75,-58.26 -10.51,-9.93 -21.68,-19.29 -31.56,-29.74l-29.9 -31.23c-81.12,-82.49 -152.58,-174.35 -217.47,-270.3 -15.96,-24.11 -32.31,-48.17 -47.01,-73.06l-44.24 -74.89c-14.32,-25.19 -26.86,-51.24 -40.43,-76.85 -6.59,-12.9 -13.55,-25.6 -19.77,-38.69l-18.37 -39.29c-24.72,-52.41 -46.25,-106.06 -67.54,-159.75l-29.03 -81.58c-9.37,-27.27 -17.86,-54.82 -26.23,-82.38 -33.07,-110.43 -58.94,-222.72 -76.93,-335.99 -17.87,-113.3 -28.51,-227.46 -30.79,-341.65 -1.02,-57.1 -0.37,-114.15 3.29,-171.09 3.43,-56.89 9.13,-113.76 19.65,-169.8z"/>
    <path class="fil8" d="M1079.34 5228.47c40.94,156.53 81.49,305.89 128.76,451.9 47.39,145.63 99.36,287.44 162.98,422.88 31.56,67.76 65.15,134.53 102.53,198.98 37.12,64.69 76.41,128.28 120.01,189.44 20.64,31.63 44.6,60.55 66.78,91.62l35.86 44.38 17.74 22.6 19.02 21.61c48.8,60.16 104.04,114.59 158.53,175.24 -19.12,-6.19 -38.01,-13.36 -56.89,-20.57l-28.27 -11.27c-9.37,-3.95 -18.11,-8.7 -27.37,-13.05 -18.25,-8.78 -36.12,-18.25 -54.36,-27.58 -17.62,-10.03 -34.6,-21.04 -52.23,-31.64l-25.84 -16.48 -24.85 -17.81c-16.59,-12.03 -32.93,-24.42 -49.28,-36.88 -15.85,-13.04 -31.18,-26.65 -46.77,-40.16 -15.85,-13.29 -30.55,-27.63 -44.99,-42.27 -59.3,-57.48 -111.64,-122.07 -158.54,-190.09 -47.4,-67.92 -87.7,-140.5 -122.41,-215.3 -69.84,-149.61 -114.57,-309.42 -136.37,-470.87 -10.51,-80.86 -15.58,-162.17 -13.82,-243.32 1.14,-40.59 3.31,-81.08 8.25,-121.41 4.69,-40.3 10.76,-80.53 21.53,-119.95z"/>
    <g>
     <path class="fil6" d="M4409.8 4797.77l-411.45 447.34c-31.58,34.35 -48.31,53.12 -53.46,70.78 -6.2,21.21 -1.1,59.52 15.45,117.14l103.06 358.45 1351.61 -388.56 -100.9 -351.04c-31.87,-110.82 -98.15,-133.47 -146.53,-150.03 -37.85,-12.92 -363.59,-100.87 -573.3,-156.82 -29.47,-7.87 -52.67,-30.65 -61.11,-59.97l-61.35 -213.4c-8.37,-29.14 -0.96,-60.54 19.56,-82.86l410.21 -446 1.24 -1.37c31.58,-34.33 48.31,-53.1 53.45,-70.76 6.17,-21.21 1.12,-59.52 -15.44,-117.14l-119.34 -415.13 -1351.64 388.6 117.23 407.7c31.84,110.81 98.11,133.46 146.52,150.03 37.8,12.92 363.54,100.85 573.25,156.81 29.49,7.88 52.7,30.62 61.13,59.97l61.35 213.4c8.38,29.14 0.96,60.52 -19.54,82.86zm-732.44 -348.57c-59.98,-20.51 -200.47,-68.56 -257.35,-266.47l-117.23 -407.71 -55.75 16.03c-25.52,7.34 -52.43,-7.54 -59.76,-33.07l-62.9 -218.74c-7.33,-25.52 7.54,-52.4 33.1,-59.73l1797.28 -516.73c25.52,-7.32 52.43,7.54 59.76,33.08l62.89 218.72c7.34,25.52 -7.55,52.42 -33.06,59.76l-55.78 16.03 119.34 415.12c56.34,195.99 9.85,259.03 -77.14,353.62l-378.4 411.46 34.28 119.2c135.51,36.27 489.63,131.36 537.14,147.6 59.99,20.49 200.49,68.53 257.4,266.47l100.92 351.03 55.75 -16.02c25.52,-7.35 52.43,7.54 59.79,33.05l62.87 218.75c7.33,25.52 -7.56,52.4 -33.07,59.75l-1797.32 516.71c-25.52,7.33 -52.4,-7.54 -59.75,-33.08l-62.87 -218.71c-7.36,-25.53 7.53,-52.42 33.07,-59.75l55.75 -16.04 -103.03 -358.47c-56.38,-195.95 -9.89,-259.03 77.13,-353.62l378.35 -411.42 -34.27 -119.24c-135.49,-36.25 -489.6,-131.33 -537.14,-147.58z"/>
     <path class="fil3" d="M4326.55 4387.29c-78.81,-13.64 -555.59,-135.48 -555.59,-135.48 0,0 -37.62,-17.58 10.51,-23.33 114.05,-13.64 322.61,42.12 556.43,-6.31 233.8,-48.42 290.96,-250.31 441.71,-257.06 32.85,-1.47 36.92,11.7 6.75,43.47 -30.16,31.8 -304.05,306.92 -341.75,344.76 -37.67,37.87 -63.91,43.3 -118.06,33.95z"/>
     <path class="fil3" d="M5172.57 5345.51c48.47,24.26 74.23,44.55 -13.96,69.9 -71.88,20.67 -791.6,227.58 -883.08,253.89 -91.47,26.3 -64.9,-14.88 -33.78,-68.05 60.13,-102.71 184.09,-263.56 394.32,-324 220.16,-63.28 428.52,14.16 536.5,68.26z"/>
     <path class="fil9" d="M4414.06 4466.31c12.36,-3.56 26.02,6.36 30.56,22.09 4.54,15.77 -1.78,31.43 -14.14,34.98 -12.33,3.55 -26.01,-6.36 -30.55,-22.11 -4.5,-15.77 1.81,-31.42 14.13,-34.96z"/>
     <path class="fil9" d="M4447.24 4581.64c12.34,-3.56 26.01,6.37 30.54,22.12 4.54,15.77 -1.79,31.4 -14.13,34.95 -12.32,3.56 -26.03,-6.35 -30.52,-22.11 -4.56,-15.77 1.77,-31.41 14.11,-34.96z"/>
     <path class="fil9" d="M4496.82 4754.06c-12.33,3.56 -26.02,-6.37 -30.56,-22.11 -4.52,-15.78 1.79,-31.44 14.15,-34.97 12.33,-3.57 25.97,6.35 30.51,22.12 4.55,15.75 -1.77,31.41 -14.1,34.96z"/>
     <path class="fil9" d="M4529.94 4869.39c-12.3,3.55 -25.98,-6.34 -30.5,-22.11 -4.55,-15.77 1.78,-31.43 14.1,-34.98 12.37,-3.54 26.02,6.38 30.57,22.13 4.51,15.78 -1.79,31.42 -14.17,34.96z"/>
     <path class="fil9" d="M4563.12 4984.73c-12.33,3.54 -26.01,-6.35 -30.52,-22.11 -4.54,-15.77 1.79,-31.42 14.1,-34.96 12.34,-3.55 26.02,6.36 30.54,22.12 4.57,15.76 -1.76,31.4 -14.12,34.95z"/>
     <path class="fil9" d="M4596.3 5100.08c-12.33,3.55 -26.02,-6.36 -30.55,-22.13 -4.53,-15.77 1.78,-31.41 14.12,-34.96 12.35,-3.55 26,6.36 30.54,22.11 4.51,15.78 -1.79,31.43 -14.11,34.98z"/>
     <path class="fil9" d="M4629.43 5215.41c-12.32,3.56 -26.01,-6.35 -30.53,-22.12 -4.52,-15.76 1.8,-31.41 14.14,-34.96 12.34,-3.55 25.99,6.36 30.54,22.11 4.53,15.77 -1.79,31.43 -14.15,34.97z"/>
    </g>
   </g>
  </g>
  <path class="fil10" d="M4299.47 107.05c2319.64,0 4200.08,1880.44 4200.08,4200.08 0,2319.64 -1880.44,4200.08 -4200.08,4200.08 -804.81,0 -1556.71,-226.48 -2195.52,-619.07l-0.07 0.2 -1416.51 440.5c-350.27,115.98 -439.52,-52.8 -326.45,-442.3l369.3 -1365.04c-399.73,-642.94 -630.83,-1401.6 -630.83,-2214.37 0,-2319.64 1880.44,-4200.08 4200.08,-4200.08z"/>
 </g>
</svg>
